PathFileType	4	(X/Y/Z)	./resultDataOpenSim/trcMotMarkerGrf/sub09/qtm-01-02.trc
DataRate	CameraRate	NumFrames	NumMarkers	Units	OrigDataRate	OrigDataStartFrame	OrigNumFrames
250.000000	250.000000	9	24	m	250.000000	1	495
Frame#	Time	L.Toe.Tip			R.Toe.Tip			L.Ankle.Lat			R.Ankle.Lat			L.Ankle.Med			R.Ankle.Med			L.Heel			R.Heel			L.Knee.Lat			R.Knee.Lat			L.Knee.Med			R.Knee.Med			L.Thigh.Upper			R.Thigh.Upper			L.ASIS			R.ASIS			V.Sacral			L.Acromium			R.Acromium			C7			L.Elbow			R.Elbow			L.Wrist.Lat			R.Wrist.Lat
		X1	Y1	Z1	X2	Y2	Z2	X3	Y3	Z3	X4	Y4	Z4	X5	Y5	Z5	X6	Y6	Z6	X7	Y7	Z7	X8	Y8	Z8	X9	Y9	Z9	X10	Y10	Z10	X11	Y11	Z11	X12	Y12	Z12	X13	Y13	Z13	X14	Y14	Z14	X15	Y15	Z15	X16	Y16	Z16	X17	Y17	Z17	X18	Y18	Z18	X19	Y19	Z19	X20	Y20	Z20	X21	Y21	Z21	X22	Y22	Z22	X23	Y23	Z23	X24	Y24	Z24

1	0	-1.5549639	0.035984926	0.0022018823	-0.98368406	0.09259662	0.13630686	-1.7014667	0.079848238	-0.0277972	-1.1342789	0.073469875	0.15851803	-1.6790583	0.094641433	0.068345008	-1.1237329	0.11372351	0.068765606	NaN	NaN	NaN	-1.1841139	0.035421938	0.10015103	-1.5451215	0.46950869	-0.08495214	-1.1987807	0.52842046	0.20468737	-1.5441144	0.46940528	0.040155582	-1.198844	0.51030534	0.0780528	-1.4544048	0.88166945	-0.12843377	-1.4102867	0.87303884	0.24205996	-1.3491541	0.95486254	-0.075613474	-1.3316065	0.95488011	0.16408173	-1.5009777	1.0182254	0.063084825	-1.3132875	1.4085479	-0.10533899	-1.3366738	1.4129521	0.22274196	-1.3896697	1.4637019	0.05270671	-1.4414895	1.0533197	-0.18799575	NaN	NaN	NaN	-1.203028	0.91943466	-0.1536121	-1.3480095	0.8397251	0.32317325
2	0.004	-1.5549314	0.035935159	0.0021477899	-0.96606928	0.096851137	0.13702816	-1.7013613	0.080603474	-0.027457027	-1.1167054	0.073667574	0.15889289	-1.6777171	0.0955885	0.068287334	-1.1069624	0.11429091	0.069216859	NaN	NaN	NaN	-1.1653563	0.034441714	0.10047635	-1.5457042	0.46942665	-0.084975066	-1.193243	0.52677542	0.20509747	-1.5425867	0.46948164	0.040380066	-1.1926358	0.50858144	0.078156658	-1.4489877	0.88078021	-0.12783009	-1.4044462	0.87142584	0.24218268	-1.3432179	0.95379893	-0.075547019	-1.3253683	0.95358006	0.16416165	-1.4939921	1.01679	0.065532207	-1.3074953	1.4075181	-0.10489646	-1.331297	1.4116988	0.22318191	-1.3839131	1.4624807	0.053380361	-1.4349623	1.0518331	-0.18775329	NaN	NaN	NaN	-1.1958362	0.91951682	-0.15285325	-1.3433365	0.83816991	0.32374153
3	0.008	-1.5548935	0.035877904	0.0020833324	-0.94882789	0.10113808	0.13776178	-1.7012207	0.08143461	-0.027148774	-1.0993085	0.073991916	0.15934562	-1.6764661	0.096508905	0.068221598	-1.0904226	0.11490637	0.069693693	NaN	NaN	NaN	-1.1468106	0.033542879	0.10089414	-1.545187	0.46950577	-0.085026476	-1.1876004	0.52506757	0.20538735	-1.5409096	0.46957072	0.040566869	-1.1864789	0.50680805	0.078264925	-1.4434693	0.87989598	-0.12731765	-1.3985259	0.86982776	0.24230139	-1.337279	0.95270755	-0.075482577	-1.3191181	0.95226306	0.16424	-1.4871075	1.0153267	0.067766676	-1.3016981	1.4064564	-0.10447278	-1.325826	1.4104252	0.22360172	-1.3781093	1.4612818	0.054215692	-1.4283938	1.0503684	-0.1874426	NaN	NaN	NaN	-1.1886548	0.91954874	-0.15210321	-1.3386548	0.83659266	0.32431428
4	0.012	-1.5548503	0.035821801	0.0020094094	-0.93211112	0.10551034	0.13847621	-1.7010423	0.082351636	-0.026876183	-1.0821889	0.07451622	0.15991102	-1.6753623	0.097399439	0.068155961	-1.0742489	0.11561426	0.070207572	NaN	NaN	NaN	-1.1285963	0.032796375	0.10146974	-1.5434278	0.46975879	-0.085108507	-1.1818613	0.52325864	0.20555374	-1.538885	0.46968887	0.040668133	-1.1803856	0.50495985	0.078370112	-1.4378398	0.87900934	-0.12691271	-1.3924803	0.8682266	0.24241637	-1.3313326	0.95157538	-0.075420124	-1.3128244	0.95092575	0.16432171	-1.4806384	1.0138266	0.069078823	-1.2958756	1.4053516	-0.10406682	-1.32024	1.4091204	0.22400389	-1.3721643	1.4601763	0.055589248	-1.4217208	1.048958	-0.1870394	NaN	NaN	NaN	-1.1814872	0.9195072	-0.15136401	-1.3339472	0.83498278	0.32489478
5	0.016	-1.5548033	0.035776414	0.0019333013	-0.91597981	0.10998638	0.13913501	-1.7008201	0.083320449	-0.026628485	-1.0654085	0.07525432	0.1605835	-1.6744217	0.098276121	0.068101179	-1.0585186	0.11643707	0.070756037	NaN	NaN	NaN	-1.110784	0.032240027	0.10224082	-1.5409668	0.47008504	-0.085196906	-1.1761082	0.52136214	0.20568704	-1.5365254	0.46982987	0.040690574	-1.1743471	0.50303831	0.078462847	-1.4321755	0.87811051	-0.12657958	-1.3862976	0.86659759	0.24252763	-1.3253821	0.95040966	-0.075356521	-1.3064633	0.94957803	0.16440522	-1.4748989	1.0122839	0.068779898	-1.2900212	1.4042191	-0.1036699	-1.3145701	1.4077866	0.22440528	-1.3660114	1.4592405	0.057843914	-1.414923	1.0476387	-0.18657893	NaN	NaN	NaN	-1.1743514	0.91939159	-0.15063753	-1.3291997	0.83334791	0.32547719
6	0.02	-1.5547522	0.035739984	0.0018600283	-0.90046991	0.11451653	0.13974615	-1.7005426	0.084326002	-0.026403155	-1.0490217	0.076176452	0.16132428	-1.6736153	0.099149607	0.068058652	-1.0432612	0.11736879	0.071335332	NaN	NaN	NaN	-1.093396	0.031863316	0.10325074	-1.53828	0.47039342	-0.085267485	-1.1703461	0.5194443	0.20587195	-1.5340029	0.46996359	0.040694577	-1.1683525	0.50105192	0.078548408	-1.4265328	0.8771967	-0.12628446	-1.3799703	0.86493396	0.24263958	-1.3194274	0.94922528	-0.075284234	-1.3000269	0.94822375	0.16448526	-1.4698236	1.0107013	0.066941112	-1.2841433	1.4030792	-0.1032746	-1.3088427	1.4064311	0.22481779	-1.3597328	1.4584224	0.060664504	-1.4080668	1.0463889	-0.1861221	NaN	NaN	NaN	-1.1672579	0.91920614	-0.14992715	-1.3243899	0.8316986	0.32605087
7	0.024	-1.5546948	0.035708078	0.0017898135	-0.88555336	0.11900858	0.1403187	-1.7002388	0.085369989	-0.026203124	-1.0331043	0.077228463	0.16206673	-1.6728789	0.10001307	0.068030892	-1.0284946	0.11838026	0.071934935	NaN	NaN	NaN	-1.076444	0.031627902	0.10452536	-1.5355337	0.47065008	-0.085308959	-1.1644981	0.51758151	0.20613143	-1.5313591	0.47006674	0.040723318	-1.1624014	0.49901146	0.078643437	-1.4209122	0.87626559	-0.12600792	-1.3735095	0.86324033	0.24275948	-1.3134713	0.94802915	-0.07519769	-1.2935194	0.94685941	0.16456904	-1.464927	1.0091027	0.064528339	-1.2782499	1.4019356	-0.1028711	-1.3030699	1.4050618	0.22524245	-1.3535362	1.4575444	0.063119295	-1.4012741	1.0451218	-0.18571385	NaN	NaN	NaN	-1.1601985	0.91895231	-0.14923115	-1.3195013	0.83003815	0.32661182
8	0.028	-1.5546271	0.03568114	0.0017205772	-0.87117063	0.1233838	0.1407997	-1.6999187	0.086450855	-0.026036821	-1.0177178	0.078364406	0.16275233	-1.6721398	0.10086523	0.068020214	-1.0142488	0.11943443	0.072523652	NaN	NaN	NaN	-1.0599844	0.031510195	0.1059797	-1.532706	0.47085271	-0.085313328	-1.1584897	0.51581143	0.20644331	-1.5285093	0.47013569	0.040780062	-1.1564874	0.49693538	0.078764315	-1.4152957	0.87531267	-0.12573514	-1.3669292	0.86152035	0.24288948	-1.3075172	0.94681903	-0.075100679	-1.2869431	0.94548569	0.1646703	-1.4596495	1.0075094	0.062795447	-1.2723391	1.4007783	-0.10245354	-1.2972565	1.4036856	0.225674	-1.3475397	1.4564849	0.064596035	-1.3946255	1.0437679	-0.18535717	NaN	NaN	NaN	-1.1531574	0.91863169	-0.14854253	-1.3145487	0.82836424	0.32716363
9	0.032	-1.5545478	0.03566257	0.001652084	-0.85730448	0.12759751	0.14109494	-1.6995059	0.08757373	-0.025931134	-1.0028347	0.079584691	0.16337021	-1.6713517	0.10172629	0.068014975	-1.000546	0.12050374	0.073062668	NaN	NaN	NaN	-1.0441238	0.031516416	0.10741253	-1.5297285	0.47100241	-0.085279062	-1.1522829	0.51413275	0.20678606	-1.5253949	0.47017392	0.040850341	-1.1505791	0.49485219	0.078923964	-1.4096763	0.87433903	-0.12545499	-1.3602206	0.85977316	0.24302713	-1.3015569	0.94560419	-0.075003457	-1.2802906	0.94410682	0.16479076	-1.4536753	1.0059316	0.062524412	-1.2664022	1.3995995	-0.10202549	-1.2914158	1.4023065	0.22610456	-1.3416794	1.4552608	0.065264763	-1.3881362	1.042311	-0.18503763	NaN	NaN	NaN	-1.1461251	0.91825218	-0.14785741	-1.3095585	0.82667507	0.3277096
